<?xml version="1.0" encoding="iso-8859-1"?>
<!-- Generator: Adobe Illustrator 19.0.0, SVG Export Plug-In . SVG Version: 6.00 Build 0)  -->
<svg version="1.1" id="Capa_1" xmlns="http://www.w3.org/2000/svg" xmlns:xlink="http://www.w3.org/1999/xlink" x="0px" y="0px"
	 viewBox="0 0 490.667 490.667" style="enable-background:new 0 0 490.667 490.667;" xml:space="preserve">
<path style="fill:#455A64;" d="M490.667,53.333v53.333H0V53.333C0,23.878,23.878,0,53.333,0h384
	C466.789,0,490.667,23.878,490.667,53.333z"/>
<path style="fill:#CFD8DC;" d="M490.667,106.667v330.667c0,29.455-23.878,53.333-53.333,53.333h-384
	C23.878,490.667,0,466.789,0,437.333V106.667H490.667z"/>
<path style="fill:#546E7A;" d="M117.333,384H224c5.891,0,10.667,4.776,10.667,10.667v42.667c0,5.891-4.776,10.667-10.667,10.667
	H117.333c-5.891,0-10.667-4.776-10.667-10.667v-42.667C106.667,388.776,111.442,384,117.333,384z"/>
<path style="fill:#4CAF50;" d="M266.667,384h106.667c5.891,0,10.667,4.776,10.667,10.667v42.667c0,5.891-4.776,10.667-10.667,10.667
	H266.667c-5.891,0-10.667-4.776-10.667-10.667v-42.667C256,388.776,260.776,384,266.667,384z"/>
<circle style="fill:#F44336;" cx="53.333" cy="53.333" r="10.667"/>
<circle style="fill:#FFC107;" cx="96" cy="53.333" r="10.667"/>
<circle style="fill:#4CAF50;" cx="138.667" cy="53.333" r="10.667"/>
<circle style="fill:#FAFAFA;" cx="245.333" cy="245.333" r="106.667"/>
<g>
	<path style="fill:#2196F3;" d="M245.333,362.667C180.532,362.667,128,310.135,128,245.333S180.532,128,245.333,128
		s117.333,52.532,117.333,117.333C362.584,310.101,310.101,362.584,245.333,362.667z M245.333,149.333c-53.019,0-96,42.981-96,96
		s42.981,96,96,96s96-42.981,96-96S298.353,149.333,245.333,149.333z"/>
	<circle style="fill:#2196F3;" cx="245.333" cy="224" r="42.667"/>
	<path style="fill:#2196F3;" d="M245.333,352c28.264,0.032,55.377-11.191,75.349-31.189c-14-41.62-59.089-64.011-100.71-50.01
		c-23.575,7.93-42.08,26.436-50.01,50.01C189.941,340.814,217.062,352.037,245.333,352z"/>
</g>
<g>
</g>
<g>
</g>
<g>
</g>
<g>
</g>
<g>
</g>
<g>
</g>
<g>
</g>
<g>
</g>
<g>
</g>
<g>
</g>
<g>
</g>
<g>
</g>
<g>
</g>
<g>
</g>
<g>
</g>
</svg>
